{"asset":{"generator":"Khronos glTF Spline I/O v0.0.1","version":"2.0"},"scenes":[{"nodes":[0]}],"nodes":[{"name":"","children":[1,2]},{"name":"VXR-COIN","matrix":[1,0,0,0,0,1,0,0,0,0,1,0,-500,1000,0,1],"children":[3,4,5,6,7]},{"name":"Personal Camera","camera":0,"translation":[-1156.3203896914597,681.5822584959499,662.3127785153807],"rotation":[-0.0806279309998851,-0.5519844208163621,-0.053737087839439486,0.8282056878029995]},{"name":"bgs","matrix":[1,0,0,0,0,1,0,0,0,0,1,0,499.99999999999994,-499.99999999999994,-0.5000000000000578,1],"children":[8,9]},{"name":"xr","matrix":[-1,0,-1.2246467991473532e-16,0,0,1,0,0,1.2246467991473532e-16,0,-1,0,500,-675.4970016479492,-1,1],"children":[10,11]},{"name":"xr","matrix":[1,0,0,0,0,1,0,0,0,0,1,0,500,-675.4970016479492,1,1],"children":[12,13]},{"name":"v","matrix":[1,0,0,0,0,1,0,0,0,0,1,0,220.022,-180,-25,1],"mesh":0},{"name":"ring","matrix":[1,0,0,0,0,1,0,0,0,0,1,0,0,0,-25,1],"mesh":1},{"name":"bg1","matrix":[-1,1.2246467991473532e-16,-1.2246467991473532e-16,0,1.2246467991473532e-16,1,1.2246467991473532e-16,0,1.2246467991473532e-16,1.2246467991473532e-16,-1,0,480.00000000000006,479.99999999999994,-0.4999999999998227,1],"mesh":2},{"name":"bg0","matrix":[1,0,0,0,0,1,0,0,0,0,1,0,-479.99999999999994,479.99999999999994,0.5000000000000578,1],"mesh":3},{"name":"r","matrix":[1,0,0,0,0,1,0,0,0,0,1,0,14.417509399414087,97.49700164794922,0,1],"mesh":4},{"name":"x","matrix":[1,0,0,0,0,1,0,0,0,0,1,0,-279.97949060058596,97.49700164794922,0,1],"mesh":5},{"name":"r","matrix":[1,0,0,0,0,1,0,0,0,0,1,0,14.417509399414087,97.49700164794922,0,1],"mesh":6},{"name":"x","matrix":[1,0,0,0,0,1,0,0,0,0,1,0,-279.97949060058596,97.49700164794922,0,1],"mesh":7}],"cameras":[{"type":"orthographic","orthographic":{"xmag":1512,"ymag":944,"zfar":100000,"znear":-100000}}],"meshes":[{"primitives":[{"attributes":{"POSITION":1,"NORMAL":2,"TEXCOORD_0":3},"indices":0}]},{"primitives":[{"attributes":{"POSITION":5,"NORMAL":6,"TEXCOORD_0":7},"indices":4}]},{"primitives":[{"attributes":{"POSITION":9,"NORMAL":10,"TEXCOORD_0":11},"indices":8}]},{"primitives":[{"attributes":{"POSITION":13,"NORMAL":14,"TEXCOORD_0":15},"indices":12}]},{"primitives":[{"attributes":{"POSITION":17,"NORMAL":18,"TEXCOORD_0":19},"indices":16}]},{"primitives":[{"attributes":{"POSITION":21,"NORMAL":22,"TEXCOORD_0":23},"indices":20}]},{"primitives":[{"attributes":{"POSITION":25,"NORMAL":26,"TEXCOORD_0":27},"indices":24}]},{"primitives":[{"attributes":{"POSITION":29,"NORMAL":30,"TEXCOORD_0":31},"indices":28}]}],"buffers":[{"uri":"data:application/octet-stream;base64,","byteLength":104208},{"uri":"data:application/octet-stream;base64,","byteLength":41472},{"uri":"data:application/octet-stream;base64,","byteLength":2088},{"uri":"data:application/octet-stream;base64,","byteLength":2088},{"uri":"data:application/octet-stream;base64,","byteLength":161088},{"uri":"data:application/octet-stream;base64,","byteLength":171984},{"uri":"data:application/octet-stream;base64,","byteLength":161088},{"uri":"data:application/octet-stream;base64,","byteLength":171984}],"bufferViews":[{"buffer":0,"byteOffset":0,"byteLength":11472,"target":34963},{"buffer":0,"byteOffset":11472,"byteLength":30912,"target":34962},{"buffer":0,"byteOffset":42384,"byteLength":30912,"target":34962},{"buffer":0,"byteOffset":73296,"byteLength":30912,"target":34962},{"buffer":1,"byteOffset":0,"byteLength":4608,"target":34963},{"buffer":1,"byteOffset":4608,"byteLength":12288,"target":34962},{"buffer":1,"byteOffset":16896,"byteLength":12288,"target":34962},{"buffer":1,"byteOffset":29184,"byteLength":12288,"target":34962},{"buffer":2,"byteOffset":0,"byteLength":552,"target":34963},{"buffer":2,"byteOffset":552,"byteLength":576,"target":34962},{"buffer":2,"byteOffset":1128,"byteLength":576,"target":34962},{"buffer":2,"byteOffset":1704,"byteLength":384,"target":34962},{"buffer":3,"byteOffset":0,"byteLength":552,"target":34963},{"buffer":3,"byteOffset":552,"byteLength":576,"target":34962},{"buffer":3,"byteOffset":1128,"byteLength":576,"target":34962},{"buffer":3,"byteOffset":1704,"byteLength":384,"target":34962},{"buffer":4,"byteOffset":0,"byteLength":17856,"target":34963},{"buffer":4,"byteOffset":17856,"byteLength":47744,"target":34962},{"buffer":4,"byteOffset":65600,"byteLength":47744,"target":34962},{"buffer":4,"byteOffset":113344,"byteLength":47744,"target":34962},{"buffer":5,"byteOffset":0,"byteLength":18960,"target":34963},{"buffer":5,"byteOffset":18960,"byteLength":51008,"target":34962},{"buffer":5,"byteOffset":69968,"byteLength":51008,"target":34962},{"buffer":5,"byteOffset":120976,"byteLength":51008,"target":34962},{"buffer":6,"byteOffset":0,"byteLength":17856,"target":34963},{"buffer":6,"byteOffset":17856,"byteLength":47744,"target":34962},{"buffer":6,"byteOffset":65600,"byteLength":47744,"target":34962},{"buffer":6,"byteOffset":113344,"byteLength":47744,"target":34962},{"buffer":7,"byteOffset":0,"byteLength":18960,"target":34963},{"buffer":7,"byteOffset":18960,"byteLength":51008,"target":34962},{"buffer":7,"byteOffset":69968,"byteLength":51008,"target":34962},{"buffer":7,"byteOffset":120976,"byteLength":51008,"target":34962}],"accessors":[{"bufferView":0,"byteOffset":0,"componentType":5125,"count":2868,"type":"SCALAR","min":[0],"max":[965]},{"bufferView":1,"byteOffset":0,"componentType":5126,"count":966,"type":"VEC3","min":[0,-377.9774169921875,0],"max":[560,0,50]},{"bufferView":2,"byteOffset":0,"componentType":5126,"count":966,"type":"VEC3","min":[-0.9690538048744202,-0.9999999403953552,-1],"max":[0.9158887267112732,1,1]},{"bufferView":3,"byteOffset":0,"componentType":5126,"count":966,"type":"VEC2","min":[0,0],"max":[1,1]},{"bufferView":4,"byteOffset":0,"componentType":5125,"count":1152,"type":"SCALAR","min":[0],"max":[383]},{"bufferView":5,"byteOffset":0,"componentType":5126,"count":384,"type":"VEC3","min":[0,-1000,0],"max":[1000,0,50]},{"bufferView":6,"byteOffset":0,"componentType":5126,"count":384,"type":"VEC3","min":[-0.9977446794509888,-0.9977446794509888,-1],"max":[0.9977446794509888,0.9977446794509888,1]},{"bufferView":7,"byteOffset":0,"componentType":5126,"count":384,"type":"VEC2","min":[0,0],"max":[1,1]},{"bufferView":8,"byteOffset":0,"componentType":5125,"count":138,"type":"SCALAR","min":[0],"max":[47]},{"bufferView":9,"byteOffset":0,"componentType":5126,"count":48,"type":"VEC3","min":[0,-960,0],"max":[960,0,0]},{"bufferView":10,"byteOffset":0,"componentType":5126,"count":48,"type":"VEC3","min":[0,0,1],"max":[0,0,1]},{"bufferView":11,"byteOffset":0,"componentType":5126,"count":48,"type":"VEC2","min":[0,0],"max":[1,1]},{"bufferView":12,"byteOffset":0,"componentType":5125,"count":138,"type":"SCALAR","min":[0],"max":[47]},{"bufferView":13,"byteOffset":0,"componentType":5126,"count":48,"type":"VEC3","min":[0,-960,0],"max":[960,0,0]},{"bufferView":14,"byteOffset":0,"componentType":5126,"count":48,"type":"VEC3","min":[0,0,1],"max":[0,0,1]},{"bufferView":15,"byteOffset":0,"componentType":5126,"count":48,"type":"VEC2","min":[0,0],"max":[1,1]},{"bufferView":16,"byteOffset":0,"componentType":5125,"count":4464,"type":"SCALAR","min":[0],"max":[1491]},{"bufferView":17,"byteOffset":0,"componentType":5126,"count":1492,"type":"VEC3","min":[0,-194.99400329589844,0],"max":[265.5619812011719,0,25]},{"bufferView":18,"byteOffset":0,"componentType":5126,"count":1492,"type":"VEC3","min":[-1,-1,-1],"max":[1,1,1]},{"bufferView":19,"byteOffset":0,"componentType":5126,"count":1492,"type":"VEC2","min":[0,0],"max":[1,1]},{"bufferView":20,"byteOffset":0,"componentType":5125,"count":4740,"type":"SCALAR","min":[0],"max":[1593]},{"bufferView":21,"byteOffset":0,"componentType":5126,"count":1594,"type":"VEC3","min":[0,-194.99400329589844,0],"max":[288.2239990234375,0,25]},{"bufferView":22,"byteOffset":0,"componentType":5126,"count":1594,"type":"VEC3","min":[-0.9973227977752686,-0.9999999403953552,-1],"max":[0.9991722702980042,1,1]},{"bufferView":23,"byteOffset":0,"componentType":5126,"count":1594,"type":"VEC2","min":[0,0],"max":[1,1]},{"bufferView":24,"byteOffset":0,"componentType":5125,"count":4464,"type":"SCALAR","min":[0],"max":[1491]},{"bufferView":25,"byteOffset":0,"componentType":5126,"count":1492,"type":"VEC3","min":[0,-194.99400329589844,0],"max":[265.5619812011719,0,25]},{"bufferView":26,"byteOffset":0,"componentType":5126,"count":1492,"type":"VEC3","min":[-1,-1,-1],"max":[1,1,1]},{"bufferView":27,"byteOffset":0,"componentType":5126,"count":1492,"type":"VEC2","min":[0,0],"max":[1,1]},{"bufferView":28,"byteOffset":0,"componentType":5125,"count":4740,"type":"SCALAR","min":[0],"max":[1593]},{"bufferView":29,"byteOffset":0,"componentType":5126,"count":1594,"type":"VEC3","min":[0,-194.99400329589844,0],"max":[288.2239990234375,0,25]},{"bufferView":30,"byteOffset":0,"componentType":5126,"count":1594,"type":"VEC3","min":[-0.9973227977752686,-0.9999999403953552,-1],"max":[0.9991722702980042,1,1]},{"bufferView":31,"byteOffset":0,"componentType":5126,"count":1594,"type":"VEC2","min":[0,0],"max":[1,1]}],"extensions":{"KHR_lights_punctual":{"lights":[]}},"extensionsUsed":["KHR_lights_punctual"]}