<svg version="1.1" id="Layer_1" x="0px" y="0px" style="enable-background:new 0 0 1000 1000;" viewBox="0 0 1000 1000" xmlns="http://www.w3.org/2000/svg" xmlns:bx="https://boxy-svg.com">
  <defs></defs>
  <style type="text/css">
	.st0{fill:#222222;}
	.st1{fill:#FFFFFF;}
	.st2{fill:#FEDA00;}
</style>
  <path d="M 500 20 C 234.903 20 20 234.903 20 500 C 20 765.097 234.903 980 500 980 C 765.097 980 980 765.097 980 500 C 980 234.903 765.097 20 500 20 Z" style="paint-order: fill; stroke-width: 20px; stroke-linecap: round; fill: rgb(34, 34, 34);"></path>
  <g>
    <path class="st1" d="M 779.921 772.495 C 777.83 772.595 776.536 772.795 775.242 772.795 C 753.537 772.795 731.734 772.795 710.03 772.894 C 707.442 773.094 704.953 771.796 703.659 769.599 C 693.304 753.924 682.751 738.349 672.496 722.673 C 671.004 720.377 669.41 719.278 666.623 719.379 C 638.148 719.478 609.575 719.478 581.102 719.379 C 577.418 719.379 576.123 720.377 576.123 724.271 C 576.322 738.947 576.123 753.525 576.223 768.201 C 576.223 771.896 575.228 773.094 571.444 772.994 C 553.922 772.795 536.299 772.795 518.777 772.994 C 515.393 772.994 514.397 772.095 514.397 768.601 C 514.496 706.498 514.496 644.495 514.397 582.394 C 514.397 579.498 514.795 578 518.28 578 C 586.179 578.099 654.178 578 722.077 578.3 C 746.17 578.399 770.263 595.772 777.532 617.637 C 778.925 622.33 779.722 627.123 779.722 632.015 C 780.021 641.9 779.423 651.785 779.921 661.668 C 781.016 683.335 770.662 698.311 753.638 709.694 C 751.247 711.291 748.759 712.589 746.17 713.687 C 743.084 714.885 742.586 716.183 744.577 719.079 C 752.841 731.46 761.005 743.84 769.169 756.32 C 772.752 761.313 776.138 766.604 779.921 772.495 Z M 638.248 673.15 C 657.463 673.051 676.578 673.15 695.793 673.051 C 701.866 672.951 707.641 671.154 711.823 666.361 C 719.589 657.375 719.987 647.092 715.706 636.708 C 711.823 627.322 703.758 624.128 694.002 624.128 C 656.468 624.128 618.934 624.128 581.301 624.028 C 577.517 624.028 576.024 625.026 576.123 629.02 C 576.322 641.999 576.422 655.079 576.123 668.059 C 576.024 672.352 577.517 673.251 581.5 673.251 C 600.516 673.051 619.332 673.15 638.248 673.15 Z" bx:origin="-0.054205 0.501708"></path>
    <path class="st1" d="M 507.925 578.3 C 504.042 582.394 500.658 586.187 497.073 589.682 C 476.663 609.45 456.254 629.22 435.844 648.889 C 428.079 656.377 420.413 664.065 412.547 671.454 C 409.86 673.949 409.461 675.447 412.348 678.242 C 432.161 697.413 451.874 716.782 471.586 736.052 C 483.434 747.534 495.182 759.115 507.03 770.597 C 507.527 771.196 507.925 771.796 508.224 772.495 C 506.532 772.595 505.237 772.795 503.943 772.795 C 477.361 772.795 450.679 772.694 424.097 772.894 C 420.612 772.894 418.521 771.196 416.43 769.1 C 401.297 754.423 386.065 739.846 370.932 725.169 C 368.841 723.072 366.651 721.075 364.063 718.779 C 359.583 723.072 355.201 727.266 350.92 731.46 C 337.878 744.039 324.836 756.62 311.893 769.2 C 309.504 771.696 306.119 773.094 302.535 772.994 C 276.45 772.795 250.366 772.894 224.281 772.894 C 222.688 772.894 221.196 772.795 220.697 772.694 C 225.676 767.203 230.454 761.212 235.929 755.921 C 260.919 731.559 286.008 707.298 311.197 683.235 C 312.989 681.537 314.681 679.841 316.473 678.143 C 318.564 676.346 318.663 674.848 316.572 672.851 C 303.53 660.271 290.687 647.491 277.645 634.911 C 259.027 616.839 240.311 598.768 221.594 580.795 C 220.996 579.997 220.398 579.198 220 578.399 C 221.793 578.3 223.086 578.099 224.381 578.099 C 250.964 578.099 277.645 578 304.228 578.2 C 307.015 578.3 309.604 579.398 311.694 581.195 C 328.221 596.871 344.649 612.745 360.976 628.82 C 363.564 631.416 365.157 631.117 367.547 628.72 C 384.173 612.546 400.899 596.371 417.825 580.297 C 419.219 578.998 420.91 578.3 422.802 578.099 C 450.48 578 478.157 578 505.934 578 C 506.432 578 507.129 578.099 507.925 578.3 Z" bx:origin="0.971467 0.50171"></path>
    <path class="st2" d="M 220.022 180.597 C 223.406 180.398 225.695 180.199 227.985 180.199 C 268.397 180.199 308.81 180.298 349.122 180 C 355.593 180 359.176 182.29 362.261 187.57 C 384.757 226.014 407.452 264.26 430.047 302.704 C 453.039 341.747 475.933 380.79 499.524 421.027 C 501.614 418.737 503.605 416.246 505.397 413.658 C 545.51 345.233 585.624 276.71 625.639 208.285 C 630.118 200.616 634.497 192.748 639.474 185.477 C 641.066 183.088 644.65 180.497 647.238 180.497 C 690.238 180.199 733.239 180.298 776.239 180.398 C 777.533 180.597 778.827 180.796 780.022 181.195 C 778.13 185.278 776.637 189.262 774.448 192.848 C 741.6 248.922 708.653 304.896 675.706 360.87 C 639.872 421.825 603.84 482.678 568.504 543.932 C 562.631 554.19 556.261 558.373 544.018 557.974 C 512.564 556.879 481.11 557.377 449.656 557.775 C 442.39 557.875 438.309 555.684 434.626 549.409 C 412.826 511.861 390.531 474.511 368.532 436.964 C 319.46 353.101 270.388 269.24 221.415 185.377 C 220.917 183.784 220.42 182.191 220.022 180.597 Z" bx:origin="0.499961 0.5"></path>
  </g>
  <path d="M 1000 500 C 1000 776.142 776.142 1000 500 1000 C 223.858 1000 0 776.142 0 500 C 0 223.858 223.858 0 500 0 C 776.142 0 1000 223.858 1000 500 Z M 500 20 C 234.903 20 20 234.903 20 500 C 20 765.097 234.903 980 500 980 C 765.097 980 980 765.097 980 500 C 980 234.903 765.097 20 500 20 Z" style="paint-order: fill; stroke-width: 20px; stroke-linecap: round; fill: rgb(254, 218, 0);" bx:origin="0.499987 0.5">
    <title>2</title>
  </path>
</svg>